<svg width="29" height="33" viewBox="0 0 29 33" fill="none" xmlns="http://www.w3.org/2000/svg">
<path d="M27.1875 28.4005H25.375V30.3855C25.375 30.9437 25.1956 31.4141 24.8369 31.7966C24.4782 32.1791 24.0487 32.3704 23.5483 32.3704C23.048 32.3704 22.6232 32.1791 22.2739 31.7966C21.9246 31.4141 21.75 30.9437 21.75 30.3855V28.4005H19.9375C19.4277 28.4005 18.9982 28.2041 18.6489 27.8112C18.2996 27.4184 18.125 26.948 18.125 26.4C18.125 25.8521 18.2996 25.3869 18.6489 25.0044C18.9982 24.6218 19.4277 24.4306 19.9375 24.4306H21.75V22.4456C21.75 21.8874 21.9246 21.417 22.2739 21.0345C22.6232 20.6519 23.048 20.4607 23.5483 20.4607C24.0487 20.4607 24.4782 20.6519 24.8369 21.0345C25.1956 21.417 25.375 21.8874 25.375 22.4456V24.4306H27.1875C27.6784 24.4306 28.1032 24.6218 28.4619 25.0044C28.8206 25.3869 29 25.8521 29 26.4C29 26.948 28.8206 27.4184 28.4619 27.8112C28.1032 28.2041 27.6784 28.4005 27.1875 28.4005ZM20.1074 20.4607C19.5033 20.9983 18.8424 21.4325 18.125 21.7633V22.6317C17.5964 22.8385 17.1621 23.1952 16.8223 23.7017C16.4824 24.2083 16.3125 24.7821 16.3125 25.4231V27.408C16.3125 28.2351 16.5768 28.9381 17.1055 29.517C17.6341 30.096 18.276 30.3855 19.0312 30.3855H19.9375V32.3084C18.6159 32.3497 16.8034 32.3704 14.5 32.3704H12.3477L10.0537 32.3394L7.58984 32.2619L5.32422 32.1223L3.18604 31.8587L1.55762 31.4865L0.382324 30.9747L0 30.2924C0.0377604 28.4729 1.07617 26.8653 3.11523 25.4696C5.1543 24.0739 7.74089 23.1486 10.875 22.6938V21.6703C9.89323 21.1947 9.04362 20.5227 8.32617 19.6543C7.60872 18.7859 7.04232 17.7676 6.62695 16.5993C6.21159 15.4311 5.90951 14.1802 5.7207 12.8465C5.5319 11.5129 5.4375 10.081 5.4375 8.55096C5.4375 7.20698 5.6735 6.02325 6.14551 4.99975C6.61751 3.97626 7.26888 3.1492 8.09961 2.51856C8.93034 1.88793 9.88379 1.41236 10.96 1.09188C12.0361 0.771389 13.2161 0.611145 14.5 0.611145C15.7839 0.611145 16.9639 0.771389 18.04 1.09188C19.1162 1.41236 20.0697 1.88793 20.9004 2.51856C21.7311 3.1492 22.3825 3.97626 22.8545 4.99975C23.3265 6.02325 23.5625 7.20698 23.5625 8.55096C23.5625 13.0998 22.8545 16.5115 21.4385 18.7859C20.7965 19.1581 20.3529 19.7163 20.1074 20.4607Z" fill="#E2E2E2"/>
</svg>
