<svg width="25" height="28" viewBox="0 0 25 28" fill="none" xmlns="http://www.w3.org/2000/svg">
<path d="M12.5 27.2948C14.1958 27.2948 15.5833 26.0358 15.5833 24.497H9.41667C9.41667 26.0358 10.8042 27.2948 12.5 27.2948ZM21.75 18.9013V11.9067C21.75 7.612 19.2371 4.01678 14.8125 3.06551V2.11425C14.8125 0.953145 13.7796 0.0158691 12.5 0.0158691C11.2204 0.0158691 10.1875 0.953145 10.1875 2.11425V3.06551C5.77834 4.01678 3.25 7.59801 3.25 11.9067V18.9013L0.166672 21.6991V23.098H24.8333V21.6991L21.75 18.9013ZM18.6667 20.3002H6.33334V11.9067C6.33334 8.43737 8.66125 5.61155 12.5 5.61155C16.3388 5.61155 18.6667 8.43737 18.6667 11.9067V20.3002Z" fill="#E2E2E2"/>
</svg>
