<svg width="39" height="32" viewBox="0 0 39 32" fill="none" xmlns="http://www.w3.org/2000/svg">
<path d="M9.75 1C9.75 0.734784 9.6216 0.48043 9.39304 0.292893C9.16448 0.105357 8.85448 0 8.53125 0C8.20802 0 7.89802 0.105357 7.66946 0.292893C7.4409 0.48043 7.3125 0.734784 7.3125 1V2H4.875C3.58207 2 2.34209 2.42143 1.42785 3.17157C0.513615 3.92172 0 4.93913 0 6L0 8H39V6C39 4.93913 38.4864 3.92172 37.5721 3.17157C36.6579 2.42143 35.4179 2 34.125 2H31.6875V1C31.6875 0.734784 31.5591 0.48043 31.3305 0.292893C31.102 0.105357 30.792 0 30.4688 0C30.1455 0 29.8355 0.105357 29.607 0.292893C29.3784 0.48043 29.25 0.734784 29.25 1V2H9.75V1ZM39 28V10H0V28C0 29.0609 0.513615 30.0783 1.42785 30.8284C2.34209 31.5786 3.58207 32 4.875 32H34.125C35.4179 32 36.6579 31.5786 37.5721 30.8284C38.4864 30.0783 39 29.0609 39 28ZM30.4688 14H32.9062C33.2295 14 33.5395 14.1054 33.768 14.2929C33.9966 14.4804 34.125 14.7348 34.125 15V17C34.125 17.2652 33.9966 17.5196 33.768 17.7071C33.5395 17.8946 33.2295 18 32.9062 18H30.4688C30.1455 18 29.8355 17.8946 29.607 17.7071C29.3784 17.5196 29.25 17.2652 29.25 17V15C29.25 14.7348 29.3784 14.4804 29.607 14.2929C29.8355 14.1054 30.1455 14 30.4688 14Z" fill="#888888"/>
</svg>
