<svg width="55" height="48" viewBox="0 0 55 48" fill="none" xmlns="http://www.w3.org/2000/svg">
<path d="M18.3333 21.52H17.0041C15.1903 21.4628 13.3823 21.7315 11.6924 22.3095C10.0025 22.8875 8.4668 23.7624 7.18051 24.88L6.81384 25.2533V36.2933H13.0472V30.0267L13.8875 29.2L14.2694 28.8133C16.2585 27.03 18.7348 25.7177 21.4652 25C20.0982 24.0922 19.02 22.8942 18.3333 21.52Z" fill="#888888"/>
<path d="M47.8805 24.84C46.5942 23.7224 45.0585 22.8475 43.3686 22.2695C41.6787 21.6915 39.8707 21.4228 38.0569 21.48C37.5006 21.4814 36.9447 21.5081 36.3916 21.56C35.692 22.8492 34.6433 23.9704 33.3361 24.8267C36.251 25.5305 38.8916 26.9132 40.9749 28.8267L41.3569 29.2L42.1819 30.0267V36.3067H48.2013V25.2133L47.8805 24.84Z" fill="#888888"/>
<path d="M16.9583 18.92H17.4319C17.2119 17.271 17.5434 15.6017 18.3865 14.1135C19.2296 12.6253 20.5483 11.3819 22.1833 10.5333C21.5906 9.74315 20.773 9.10082 19.8104 8.66928C18.8478 8.23773 17.7733 8.03175 16.6921 8.07152C15.6109 8.11128 14.56 8.39542 13.6424 8.89612C12.7249 9.39681 11.972 10.0969 11.4576 10.9278C10.9432 11.7587 10.6849 12.692 10.708 13.6362C10.731 14.5804 11.0347 15.5032 11.5892 16.3143C12.1437 17.1253 12.93 17.7968 13.8712 18.2629C14.8124 18.729 15.8761 18.9738 16.9583 18.9733V18.92Z" fill="#888888"/>
<path d="M37.3236 17.92C37.3422 18.2265 37.3422 18.5336 37.3236 18.84C37.6168 18.8806 37.9129 18.9029 38.2097 18.9067H38.5C39.5774 18.8565 40.6216 18.5638 41.5309 18.0569C42.4402 17.5501 43.1836 16.8463 43.6887 16.0143C44.1939 15.1823 44.4436 14.2502 44.4135 13.309C44.3834 12.3677 44.0745 11.4493 43.517 10.6432C42.9595 9.83699 42.1723 9.17055 41.232 8.70872C40.2918 8.24689 39.2305 8.0054 38.1516 8.00777C37.0726 8.01014 36.0128 8.25628 35.0752 8.72224C34.1376 9.18819 33.3543 9.85808 32.8014 10.6667C34.1842 11.4546 35.3212 12.5298 36.1105 13.7957C36.8997 15.0617 37.3166 16.4788 37.3236 17.92Z" fill="#888888"/>
<path d="M27.3013 23.8933C31.073 23.8933 34.1305 21.2249 34.1305 17.9333C34.1305 14.6417 31.073 11.9733 27.3013 11.9733C23.5297 11.9733 20.4722 14.6417 20.4722 17.9333C20.4722 21.2249 23.5297 23.8933 27.3013 23.8933Z" fill="#888888"/>
<path d="M27.668 27.0667C25.6728 26.9964 23.6819 27.2791 21.8152 27.8977C19.9484 28.5164 18.2443 29.4583 16.8055 30.6667L16.4236 31.04V39.48C16.4295 39.7549 16.4975 40.0261 16.6236 40.2781C16.7497 40.5301 16.9314 40.7579 17.1584 40.9486C17.3854 41.1393 17.6532 41.2891 17.9466 41.3894C18.2399 41.4897 18.553 41.5386 18.868 41.5333H36.4222C36.7372 41.5386 37.0503 41.4897 37.3437 41.3894C37.637 41.2891 37.9048 41.1393 38.1318 40.9486C38.3588 40.7579 38.5406 40.5301 38.6666 40.2781C38.7927 40.0261 38.8607 39.7549 38.8666 39.48V31.0667L38.5 30.6667C37.0705 29.4546 35.3724 28.51 33.5097 27.891C31.6471 27.272 29.6593 26.9914 27.668 27.0667Z" fill="#888888"/>
</svg>
