<svg width="45" height="36" viewBox="0 0 45 36" fill="none" xmlns="http://www.w3.org/2000/svg">
<path d="M43.2915 17.7129L24.8017 1.87264L23.5623 0.810333C23.2799 0.569885 22.8981 0.434937 22.5 0.434937C22.102 0.434937 21.7201 0.569885 21.4377 0.810333L1.70852 17.7129C1.41917 17.9599 1.19049 18.2542 1.03598 18.5782C0.88147 18.9023 0.804263 19.2495 0.808914 19.5996C0.828055 21.0433 2.23011 22.1959 3.91448 22.1959H5.94817V35.5547H39.0519V22.1959H41.1286C41.9469 22.1959 42.7173 21.9211 43.2963 21.4248C43.5814 21.1812 43.8073 20.8916 43.9609 20.5726C44.1145 20.2537 44.1928 19.9118 44.1911 19.5668C44.1911 18.8695 43.8705 18.2092 43.2915 17.7129ZM25.1797 32.6015H19.8203V24.2344H25.1797V32.6015ZM35.6066 19.2428V32.6015H28.2422V23.25C28.2422 22.3435 27.3857 21.6094 26.3282 21.6094H18.6719C17.6144 21.6094 16.7578 22.3435 16.7578 23.25V32.6015H9.39349V19.2428H4.79974L22.5048 4.07928L23.6102 5.02674L40.2051 19.2428H35.6066Z" fill="#06C0D9"/>
</svg>
