<svg width="26" height="21" viewBox="0 0 26 21" fill="none" xmlns="http://www.w3.org/2000/svg">
<path d="M25.9582 1.85999C25.9582 1.53976 25.8168 1.23264 25.5652 1.0062C25.3136 0.779761 24.9724 0.652549 24.6166 0.652549C24.5482 0.652549 24.4825 0.661729 24.4165 0.670639V0.644989H1.37499V0.652549C1.01917 0.652549 0.677931 0.779761 0.426332 1.0062C0.174733 1.23264 0.0333862 1.53976 0.0333862 1.85999V19.275H0.0483863C0.123986 19.8774 0.685286 20.3474 1.37469 20.3474V20.355H24.4162V20.3293C24.4819 20.3382 24.5476 20.3474 24.6163 20.3474C25.306 20.3474 25.8673 19.8776 25.9429 19.275H25.9663V1.85999H25.9582ZM22.9795 17.6666H19.7212C19.7102 17.6251 19.6935 17.585 19.6714 17.5473L19.6768 17.5446L12.8611 6.92006L12.8584 6.92141C12.7832 6.78087 12.6655 6.66225 12.5189 6.57916C12.3722 6.49606 12.2025 6.45185 12.0292 6.45161C11.8511 6.45181 11.6769 6.49833 11.5275 6.58556C11.3781 6.67278 11.2599 6.79701 11.1871 6.94328L6.65139 14.0135L5.54079 12.2825L5.53929 12.2833C5.49969 12.2092 5.43768 12.1466 5.36036 12.1028C5.28305 12.059 5.19357 12.0356 5.10219 12.0355C4.90449 12.0355 4.73499 12.1421 4.65849 12.2941L3.02049 14.8475V3.34094H22.9795V17.6666Z" fill="#888888"/>
</svg>
