<svg width="18" height="25" viewBox="0 0 18 25" fill="none" xmlns="http://www.w3.org/2000/svg">
<path d="M15.75 9.96875C15.75 7.95476 15.0388 6.02326 13.773 4.59916C12.5071 3.17505 10.7902 2.375 9 2.375C7.20979 2.375 5.4929 3.17505 4.22703 4.59916C2.96116 6.02326 2.25 7.95476 2.25 9.96875C2.25 13.0839 4.4655 17.144 9 22.0074C13.5345 17.144 15.75 13.0839 15.75 9.96875ZM9 24.3125C3.4995 18.6881 0.75 13.9057 0.75 9.96875C0.75 7.50721 1.61919 5.14649 3.16637 3.40592C4.71354 1.66534 6.81196 0.6875 9 0.6875C11.188 0.6875 13.2865 1.66534 14.8336 3.40592C16.3808 5.14649 17.25 7.50721 17.25 9.96875C17.25 13.9057 14.5005 18.6881 9 24.3125Z" fill="#888888"/>
</svg>
