<svg width="24" height="27" viewBox="0 0 24 27" fill="none" xmlns="http://www.w3.org/2000/svg">
<path d="M18.75 10.9688C18.75 8.95476 18.0388 7.02326 16.773 5.59916C15.5071 4.17505 13.7902 3.375 12 3.375C10.2098 3.375 8.4929 4.17505 7.22703 5.59916C5.96116 7.02326 5.25 8.95476 5.25 10.9688C5.25 14.0839 7.4655 18.144 12 23.0074C16.5345 18.144 18.75 14.0839 18.75 10.9688ZM12 25.3125C6.4995 19.6881 3.75 14.9057 3.75 10.9688C3.75 8.50721 4.61919 6.14649 6.16637 4.40592C7.71354 2.66534 9.81196 1.6875 12 1.6875C14.188 1.6875 16.2865 2.66534 17.8336 4.40592C19.3808 6.14649 20.25 8.50721 20.25 10.9688C20.25 14.9057 17.5005 19.6881 12 25.3125Z" fill="#888888"/>
<path d="M12 13.5C12.5967 13.5 13.169 13.2333 13.591 12.7586C14.0129 12.2839 14.25 11.6401 14.25 10.9688C14.25 10.2974 14.0129 9.65359 13.591 9.17889C13.169 8.70418 12.5967 8.4375 12 8.4375C11.4033 8.4375 10.831 8.70418 10.409 9.17889C9.98705 9.65359 9.75 10.2974 9.75 10.9688C9.75 11.6401 9.98705 12.2839 10.409 12.7586C10.831 13.2333 11.4033 13.5 12 13.5V13.5ZM12 15.1875C11.0054 15.1875 10.0516 14.743 9.34835 13.9519C8.64509 13.1607 8.25 12.0876 8.25 10.9688C8.25 9.84987 8.64509 8.77681 9.34835 7.98564C10.0516 7.19447 11.0054 6.75 12 6.75C12.9946 6.75 13.9484 7.19447 14.6517 7.98564C15.3549 8.77681 15.75 9.84987 15.75 10.9688C15.75 12.0876 15.3549 13.1607 14.6517 13.9519C13.9484 14.743 12.9946 15.1875 12 15.1875Z" fill="#888888"/>
</svg>
