<svg width="41" height="39" viewBox="0 0 41 39" fill="none" xmlns="http://www.w3.org/2000/svg">
<path d="M24.0869 39.191H16.5036C16.0284 39.1911 15.5675 39.0385 15.1973 38.7586C14.8271 38.4786 14.5698 38.0881 14.4682 37.6518L13.6202 33.9623C12.4891 33.4964 11.4166 32.9138 10.4223 32.2253L6.59525 33.3709C6.14226 33.5067 5.65348 33.4927 5.21008 33.3313C4.76669 33.17 4.39536 32.8709 4.15775 32.4838L0.357751 26.313C0.122637 25.9256 0.0343808 25.4745 0.107422 25.0338C0.180464 24.593 0.410478 24.1886 0.759834 23.8867L3.72858 21.3408C3.59358 20.1876 3.59358 19.0239 3.72858 17.8707L0.759834 15.3307C0.409983 15.0287 0.179656 14.6239 0.106603 14.1827C0.0335493 13.7415 0.122103 13.2901 0.357751 12.9024L4.14942 6.72776C4.38702 6.34063 4.75836 6.04154 5.20175 5.88017C5.64515 5.71879 6.13392 5.70484 6.58692 5.84063L10.414 6.98626C10.9223 6.63376 11.4515 6.30476 11.9973 6.00709C12.5244 5.72901 13.0661 5.47638 13.6202 5.25118L14.4703 1.56559C14.5714 1.12927 14.8282 0.738564 15.1981 0.45825C15.5679 0.177936 16.0285 0.0248535 16.5036 0.0243835H24.0869C24.562 0.0248535 25.0226 0.177936 25.3924 0.45825C25.7623 0.738564 26.0191 1.12927 26.1203 1.56559L26.9786 5.25313C28.1091 5.71902 29.1809 6.30161 30.1744 6.99018L34.0036 5.84455C34.4563 5.70926 34.9446 5.72347 35.3876 5.88482C35.8305 6.04616 36.2015 6.34496 36.439 6.73168L40.2307 12.9063C40.714 13.7033 40.5473 14.7119 39.8286 15.3327L36.8598 17.8785C36.9948 19.0317 36.9948 20.1954 36.8598 21.3487L39.8286 23.8945C40.5473 24.5173 40.714 25.5238 40.2307 26.3209L36.439 32.4955C36.2014 32.8826 35.8301 33.1817 35.3867 33.3431C34.9433 33.5045 34.4545 33.5184 34.0015 33.3826L30.1744 32.237C29.181 32.9251 28.1091 33.507 26.9786 33.9721L26.1203 37.6518C26.0186 38.0878 25.7617 38.478 25.3919 38.7579C25.0221 39.0379 24.5617 39.1907 24.0869 39.191ZM11.1703 27.8895L12.8786 29.0645C13.264 29.3308 13.664 29.5756 14.0807 29.7989C14.4723 30.0123 14.8723 30.2043 15.2869 30.3785L17.2307 31.1795L18.1828 35.2744H22.4119L23.364 31.1776L25.3078 30.3766C26.1557 30.0241 26.9619 29.5874 27.7098 29.0723L29.4182 27.8973L33.6723 29.1703L35.7869 25.7275L32.489 22.9016L32.7223 20.9198C32.8265 20.0523 32.8265 19.1769 32.7223 18.3113L32.489 16.3295L35.789 13.4977L33.6723 10.053L29.4203 11.3259L27.7098 10.1509C26.9615 9.63332 26.1562 9.19278 25.3078 8.83688L23.364 8.03592L22.4119 3.94105H18.1828L17.2244 8.03788L15.2869 8.83688C14.4373 9.18666 13.6317 9.62409 12.8848 10.1411L11.1744 11.3161L6.92442 10.0432L4.80567 13.4977L8.10358 16.3197L7.87025 18.3035C7.76608 19.171 7.76608 20.0464 7.87025 20.912L8.10358 22.8938L4.80567 25.7197L6.92025 29.1624L11.1703 27.8895ZM20.2869 27.441C18.0768 27.441 15.9572 26.6158 14.3944 25.1467C12.8316 23.6777 11.9536 21.6852 11.9536 19.6077C11.9536 17.5302 12.8316 15.5377 14.3944 14.0687C15.9572 12.5997 18.0768 11.7744 20.2869 11.7744C22.4971 11.7744 24.6167 12.5997 26.1795 14.0687C27.7423 15.5377 28.6203 17.5302 28.6203 19.6077C28.6203 21.6852 27.7423 23.6777 26.1795 25.1467C24.6167 26.6158 22.4971 27.441 20.2869 27.441ZM20.2869 15.691C19.471 15.6918 18.6733 15.9178 17.9927 16.3408C17.3122 16.7639 16.7787 17.3655 16.4586 18.071C16.1385 18.7764 16.0457 19.5547 16.1919 20.3093C16.338 21.0639 16.7166 21.7615 17.2808 22.3156C17.8449 22.8697 18.5696 23.256 19.3652 23.4264C20.1607 23.5969 20.9919 23.544 21.7558 23.2744C22.5196 23.0048 23.1825 22.5303 23.6621 21.9098C24.1416 21.2894 24.4169 20.5502 24.4536 19.784V20.5673V19.6077C24.4536 18.569 24.0146 17.5727 23.2332 16.8382C22.4518 16.1037 21.392 15.691 20.2869 15.691Z" fill="#888888"/>
</svg>
