<svg width="26" height="19" viewBox="0 0 26 19" fill="none" xmlns="http://www.w3.org/2000/svg">
<path d="M25.4419 0.35155C25.2985 0.246607 25.1173 0.173949 24.9197 0.142118C24.7221 0.110287 24.5162 0.120606 24.3262 0.171863L0.951251 6.42186C0.749661 6.47809 0.576103 6.57807 0.45363 6.70855C0.331157 6.83902 0.265564 6.9938 0.265564 7.15233C0.265564 7.31086 0.331157 7.46564 0.45363 7.59612C0.576103 7.72659 0.749661 7.82658 0.951251 7.8828L10.0781 10.5625L16.8144 5.59374L18.3125 6.6953L11.5444 11.6719L15.1994 18.3828C15.2781 18.5282 15.4144 18.6528 15.5906 18.7405C15.7667 18.8283 15.9747 18.8751 16.1875 18.875C16.4022 18.8717 16.6106 18.8207 16.7851 18.7287C16.9596 18.6366 17.092 18.5079 17.165 18.3594L25.665 1.17186C25.7374 1.03364 25.7548 0.883136 25.7153 0.737897C25.6758 0.592657 25.581 0.458668 25.4419 0.35155Z" fill="white"/>
</svg>
