<svg width="42" height="30" viewBox="0 0 42 30" fill="none" xmlns="http://www.w3.org/2000/svg">
<path fill-rule="evenodd" clip-rule="evenodd" d="M0 6C0 4.4087 0.553123 2.88258 1.53769 1.75736C2.52226 0.632141 3.85761 4.15537e-08 5.25 4.15537e-08H24.9375C26.2109 -0.000171144 27.4409 0.528578 28.3985 1.48778C29.3561 2.44699 29.9761 3.77126 30.1429 5.214L38.3066 1.068C38.7062 0.864515 39.144 0.778391 39.5801 0.817456C40.0162 0.856522 40.4369 1.01954 40.8039 1.29169C41.1709 1.56384 41.4725 1.93649 41.6814 2.37577C41.8903 2.81505 41.9998 3.30704 42 3.807V26.193C41.9996 26.6926 41.8901 27.1841 41.6813 27.6231C41.4726 28.062 41.1712 28.4344 40.8046 28.7064C40.438 28.9785 40.0177 29.1417 39.582 29.181C39.1462 29.2204 38.7087 29.1348 38.3092 28.932L30.1429 24.786C29.9761 26.2287 29.3561 27.553 28.3985 28.5122C27.4409 29.4714 26.2109 30.0002 24.9375 30H5.25C3.85761 30 2.52226 29.3679 1.53769 28.2426C0.553123 27.1174 0 25.5913 0 24V6ZM30.1875 21.525L39.375 26.193V3.807L30.1875 8.475V21.525ZM5.25 3C4.55381 3 3.88613 3.31607 3.39384 3.87868C2.90156 4.44129 2.625 5.20435 2.625 6V24C2.625 24.7956 2.90156 25.5587 3.39384 26.1213C3.88613 26.6839 4.55381 27 5.25 27H24.9375C25.6337 27 26.3014 26.6839 26.7937 26.1213C27.2859 25.5587 27.5625 24.7956 27.5625 24V6C27.5625 5.20435 27.2859 4.44129 26.7937 3.87868C26.3014 3.31607 25.6337 3 24.9375 3H5.25Z" fill="#888888"/>
</svg>
